# xmcd
#
# Track frame offsets: 
#        150
#        12348
#        30778
#        44200
#        55965
#        71490
#        93170
#        105055
#        116440
#        128925
#        140515
#        153862
#        171954
#        186359
#        200056
#        213876
#        225601
#        237149
#        247584
#        261172
#        275944
#        290619
#        305894
#        314907
#        326972
#        336152
#        345142
#
# Disc length: 4783 seconds
#
# Revision: 1
# Processed by: cddbd v1.5.2PL0 Copyright (c) Steve Scherf et al.
# Submitted via: ExactAudioCopy v1.3
#
DISCID=9112ad1b
DTITLE=Mance Lipscomb - Akella Presents - Greatest Bluesmen - vol. 05 
DTITLE=CD1
DYEAR=2017
DGENRE=Blues
TTITLE0=Freddie
TTITLE1=Jack O' Diamonds
TTITLE2=One Thin Dime
TTITLE3=Ella Speed
TTITLE4='Bout A Spoonful
TTITLE5=Night Time Is The Right Time
TTITLE6=Which A Way Do Red River Run
TTITLE7=Ballad Of The Boll Weevill
TTITLE8=Shine On Harvest Moon
TTITLE9=Captain, Captain
TTITLE10=When Death Comes Creeping In Your Room
TTITLE11=Rocks And Gravel Make A Solid Road
TTITLE12=Boogie In A
TTITLE13=Hattie Green
TTITLE14=Bumble Bee Blues
TTITLE15=Alabama Bound
TTITLE16=Cocaine Done Kill My Baby
TTITLE17=Casey Jones
TTITLE18=Is You Gonna Quit Me Baby
TTITLE19=Frankie Was A Good Woman
TTITLE20=Johny Take A One On Me
TTITLE21=Mama, Don't Dog Me
TTITLE22=You Gonna Look Like A Monkey
TTITLE23=Motherless Children
TTITLE24=Rag in G
TTITLE25=Take Me Back Babe
TTITLE26=Willie Poor Boy
EXTD=
EXTT0=
EXTT1=
EXTT2=
EXTT3=
EXTT4=
EXTT5=
EXTT6=
EXTT7=
EXTT8=
EXTT9=
EXTT10=
EXTT11=
EXTT12=
EXTT13=
EXTT14=
EXTT15=
EXTT16=
EXTT17=
EXTT18=
EXTT19=
EXTT20=
EXTT21=
EXTT22=
EXTT23=
EXTT24=
EXTT25=
EXTT26=
PLAYORDER=
